<?xml version="1.0" encoding="UTF-8" standalone="no"?>
<!-- Created with Inkscape (http://www.inkscape.org/) -->

<svg
   width="73.544418mm"
   height="110.43947mm"
   viewBox="0 0 73.544418 110.43947"
   version="1.1"
   id="svg1"
   xml:space="preserve"
   sodipodi:docname="Jar.svg"
   inkscape:version="1.4.2 (ebf0e940d0, 2025-05-08)"
   xmlns:inkscape="http://www.inkscape.org/namespaces/inkscape"
   xmlns:sodipodi="http://sodipodi.sourceforge.net/DTD/sodipodi-0.dtd"
   xmlns="http://www.w3.org/2000/svg"
   xmlns:svg="http://www.w3.org/2000/svg"><sodipodi:namedview
     id="namedview1"
     pagecolor="#ffffff"
     bordercolor="#000000"
     borderopacity="0.25"
     inkscape:showpageshadow="2"
     inkscape:pageopacity="0.0"
     inkscape:pagecheckerboard="0"
     inkscape:deskcolor="#d1d1d1"
     inkscape:document-units="mm"
     inkscape:zoom="1.3607756"
     inkscape:cx="138.89138"
     inkscape:cy="208.70451"
     inkscape:window-width="1477"
     inkscape:window-height="776"
     inkscape:window-x="0"
     inkscape:window-y="0"
     inkscape:window-maximized="1"
     inkscape:current-layer="svg1" /><defs
     id="defs1" /><path
     style="fill:#f9f9f9"
     d="m 10.446165,110.1539 c -1.9983648,-0.37832 -4.8731458,-1.87637 -6.3879618,-3.32876 -1.675493,-1.60645 -2.654543,-3.12984 -3.44311202,-5.35743 L 0.00628518,99.747908 6.8518416e-4,67.444932 C -0.00471482,36.010427 0.00928518,35.085671 0.52407318,33.049094 1.5299782,29.069265 2.5829332,27.369596 8.4589942,20.240625 L 11.403115,16.66875 10.160521,16.520245 C 8.6890912,16.344391 7.9326052,15.586265 7.9326052,14.2875 c 0,-1.319092 0.753721,-2.057646 2.2785978,-2.232745 1.085312,-0.124625 1.306872,-0.244234 1.377824,-0.743818 0.07602,-0.53524 -0.02616,-0.595312 -1.01254,-0.595312 -1.4400318,0 -2.6480338,-1.112468 -2.6354678,-2.427043 0.01399,-1.462931 1.042249,-2.335457 2.7523158,-2.335457 0.829943,0 0.943436,-0.07957 0.943436,-0.661459 0,-0.60859 -0.09617,-0.661458 -1.203258,-0.661458 -0.9613228,0 -1.3337158,-0.140766 -1.8520838,-0.700093 -0.853914,-0.92139 -0.858037,-2.20218 -0.01026,-3.187757 L 9.2097332,0 h 27.5624798 27.56249 l 0.63853,0.742358 c 1.45969,1.697028 0.4099,3.88785 -1.86298,3.88785 -1.10644,0 -1.20265,0.05292 -1.20265,0.661458 0,0.597393 0.10448,0.661459 1.07869,0.661459 1.38971,0 2.62548,1.120814 2.62548,2.38125 0,1.260435 -1.23577,2.38125 -2.62548,2.38125 -0.97421,0 -1.07869,0.06407 -1.07869,0.661458 0,0.608542 0.0962,0.661458 1.20265,0.661458 1.53502,0 2.50152,0.852948 2.50152,2.207621 0,1.345896 -0.7416,2.096861 -2.24571,2.274083 l -1.26039,0.148505 3.28518,3.96875 c 5.726072,6.917524 6.569212,8.290281 7.623202,12.411594 0.52305,2.045247 0.53509,2.827503 0.52964,34.395838 l -0.006,32.302976 -0.60881,1.719802 c -0.7834,2.21299 -1.65907,3.57839 -3.3836,5.27593 -1.61715,1.59185 -4.398362,3.01902 -6.694502,3.43529 -2.00087,0.36273 -50.47916,0.33958 -52.405057,-0.025 z m 53.657277,-1.80985 c 1.92984,-0.59607 4.421723,-2.29408 5.557843,-3.78721 0.40821,-0.53648 1.12258,-1.77843 1.5875,-2.75988 l 0.8453,-1.78446 V 67.468752 c 0,-36.37057 0.12999,-33.75585 -1.88239,-37.863431 -0.78383,-1.599907 -4.618103,-6.583107 -9.411473,-12.231586 l -0.71052,-0.837277 H 36.841192 13.592678 L 12.7767,17.396354 c -2.650388,2.793034 -8.5841448,10.464291 -9.4182598,12.176075 -2.03058,4.167196 -1.881505,1.403298 -1.979778,36.705693 -0.06396,22.977036 -0.0052,32.049136 0.214858,33.196386 0.78659,4.099992 3.702317,7.451542 7.654905,8.799112 l 1.7269068,0.58876 25.70286,0.007 c 25.01115,0.007 25.74921,-0.007 27.42525,-0.52516 z m -28.03468,-2.78931 c -0.0883,-0.23014 -0.0478,-0.53125 0.0901,-0.66913 0.15015,-0.15015 3.53341,-0.2226 8.43566,-0.18065 7.98522,0.0683 8.18496,0.0829 8.18496,0.5992 0,0.5164 -0.1997,0.53086 -8.27509,0.5991 -7.34253,0.062 -8.29317,0.0228 -8.43565,-0.34852 z m 19.27093,-0.17613 c 0.0837,-0.59014 0.15653,-0.60361 3.26064,-0.60361 2.99861,0 3.175,0.0294 3.175,0.52916 0,0.49652 -0.2012,0.53376 -3.26064,0.60362 l -3.26063,0.0744 z M 68.323775,61.322312 c -0.23869,-0.0833 -0.33073,-0.9611 -0.33073,-3.15443 0,-3.00028 0.008,-3.03798 0.59531,-2.95451 0.57138,0.0812 0.59831,0.20294 0.66983,3.02959 0.0754,2.98206 -0.0479,3.38858 -0.93441,3.07935 z m 0,-8.20209 c -0.25477,-0.0889 -0.33073,-1.95717 -0.33073,-8.134797 0,-8.199389 0.0343,-8.481432 0.99219,-8.147318 0.25477,0.08887 0.33072,1.957169 0.33072,8.134801 0,8.199384 -0.0343,8.481434 -0.99218,8.147314 z m -4.290433,-38.45276 c 0.72572,-1.356013 1.7696,-1.306004 -27.26114,-1.306004 -29.0307308,0 -27.9868458,-0.05001 -27.2611298,1.306004 l 0.292253,0.546079 h 26.9688768 26.96889 z m -3.71322,-3.438285 c 0,-0.5045 -0.41505,-0.513552 -23.54792,-0.513552 -23.350143,0 -23.547912,0.0044 -23.547912,0.527729 0,0.522753 0.220178,0.528367 23.349482,0.595313 12.84221,0.03717 23.43877,0.03079 23.54791,-0.01418 0.10914,-0.04497 0.19844,-0.312859 0.19844,-0.595312 z m 3.65125,-2.418552 c 0.41843,-0.418427 0.40074,-0.619797 -0.0983,-1.11881 -0.37248,-0.372479 -3.19447,-0.415774 -27.1009,-0.415774 -23.906416,0 -26.728408,0.0433 -27.1008878,0.415774 -0.499013,0.499013 -0.516701,0.700383 -0.09827,1.11881 0.4606088,0.460608 53.9377218,0.460608 54.3983318,0 z M 60.320122,5.291666 V 4.630208 H 36.772202 13.22429 v 0.661458 0.661459 h 23.547912 23.54792 z m 3.71322,-2.530454 c 0.72572,-1.356013 1.7696,-1.306004 -27.26114,-1.306004 -29.0307308,0 -27.9868458,-0.05001 -27.2611298,1.306004 l 0.292253,0.546079 h 26.9688768 26.96889 z"
     id="path1" /></svg>
