<?xml version="1.0" encoding="UTF-8" standalone="no"?>
<!-- Created with Inkscape (http://www.inkscape.org/) -->

<svg
   width="57.713074mm"
   height="16.536457mm"
   viewBox="0 0 57.713073 16.536457"
   version="1.1"
   id="svg1"
   xml:space="preserve"
   sodipodi:docname="jar_lid_bg.svg"
   inkscape:version="1.4.2 (ebf0e940d0, 2025-05-08)"
   xmlns:inkscape="http://www.inkscape.org/namespaces/inkscape"
   xmlns:sodipodi="http://sodipodi.sourceforge.net/DTD/sodipodi-0.dtd"
   xmlns="http://www.w3.org/2000/svg"
   xmlns:svg="http://www.w3.org/2000/svg"><sodipodi:namedview
     id="namedview1"
     pagecolor="#ffffff"
     bordercolor="#000000"
     borderopacity="0.25"
     inkscape:showpageshadow="2"
     inkscape:pageopacity="0.0"
     inkscape:pagecheckerboard="0"
     inkscape:deskcolor="#d1d1d1"
     inkscape:document-units="mm"
     inkscape:zoom="1.9028799"
     inkscape:cx="101.68797"
     inkscape:cy="43.618097"
     inkscape:window-width="1477"
     inkscape:window-height="776"
     inkscape:window-x="0"
     inkscape:window-y="0"
     inkscape:window-maximized="1"
     inkscape:current-layer="svg1" /><defs
     id="defs1" /><path
     style="fill:#f9f9f9;stroke-width:4.99999;fill-opacity:1"
     d="M 0.79950087,2.1551763 2.1899372,4.0322653 4.3798743,4.2060698 4.3103524,6.2569634 1.9813717,6.778377 0.59093544,8.4469006 1.2861536,9.3159232 3.6846562,10.011141 4.3798743,11.401578 3.7194172,13.03534 1.8075672,12.861536 0.55617451,13.973885 1.0428272,15.433843 2.2246981,15.990017 H 55.686973 L 56.868845,14.530059 56.451714,13.243906 54.852712,12.65297 53.531798,12.548688 53.184189,11.297295 53.010384,10.463033 54.40082,9.6982932 56.729801,9.5592497 56.799323,8.2383351 56.69504,7.3693125 55.617451,6.778377 54.157493,6.2917241 h -1.147109 l 0.104283,-1.2861533 0.104283,-0.799501 1.494718,-0.1738045 1.564241,-0.2780874 0.625697,-1.0080662 0.03476,-1.14711 L 56.173626,1.0428272 1.9172145,0.83570888"
     id="path1" /></svg>
