<?xml version="1.0" encoding="UTF-8" standalone="no"?>
<!-- Created with Inkscape (http://www.inkscape.org/) -->

<svg
   width="73.544449mm"
   height="98.314079mm"
   viewBox="0 0 73.544449 98.314081"
   version="1.1"
   id="svg1"
   xml:space="preserve"
   sodipodi:docname="jar_open.svg"
   inkscape:version="1.4.2 (ebf0e940d0, 2025-05-08)"
   xmlns:inkscape="http://www.inkscape.org/namespaces/inkscape"
   xmlns:sodipodi="http://sodipodi.sourceforge.net/DTD/sodipodi-0.dtd"
   xmlns="http://www.w3.org/2000/svg"
   xmlns:svg="http://www.w3.org/2000/svg"><sodipodi:namedview
     id="namedview1"
     pagecolor="#ffffff"
     bordercolor="#000000"
     borderopacity="0.25"
     inkscape:showpageshadow="2"
     inkscape:pageopacity="0.0"
     inkscape:pagecheckerboard="0"
     inkscape:deskcolor="#d1d1d1"
     inkscape:document-units="mm"
     inkscape:zoom="1.0808865"
     inkscape:cx="123.50973"
     inkscape:cy="176.7068"
     inkscape:window-width="1477"
     inkscape:window-height="776"
     inkscape:window-x="0"
     inkscape:window-y="0"
     inkscape:window-maximized="1"
     inkscape:current-layer="svg1" /><defs
     id="defs1" /><path
     style="fill:#f9f9f9;stroke-width:4.99999;fill-opacity:0.10325479"
     d="M 13.417768,2.4982705e-4 9.0569943,1.1015263 8.8274966,2.4232343 9.7794814,3.7213955 12.462348,4.2406601 6.5773503,11.943084 1.958269,18.236381 0.61195907,23.376837 0.8567427,87.387757 c 0,0 2.3254444,9.42417 10.1585203,10.280912 7.833077,0.856742 35.983195,-0.122391 35.983195,-0.122391 l 14.687018,-0.122394 c 0,0 10.770478,-2.080659 11.015263,-9.668952 0.244782,-7.588292 0.122391,-65.969189 0.122391,-65.969189 0,0 -1.591093,-5.874807 -3.671755,-7.710684 C 67.070715,12.239182 60.58395,4.1613216 60.58395,4.1613216 L 63.643745,3.9165381 64.928858,2.2948466 63.906679,-1.7294782e-7"
     id="path1"
     sodipodi:nodetypes="cccccccccsccscscccc" /><path
     id="path1-7"
     style="fill:#f9f9f9"
     d="M 9.7726956,9.8270522e-6 C 8.5418736,0.25994583 7.9330146,0.97636583 7.9330146,2.1621519 c 0,1.298765 0.756341,2.057085 2.2277714,2.232939 l 1.242302,0.148311 -2.9440074,3.571875 c -5.876061,7.1289711 -6.929011,8.8286921 -7.93491598,12.8085211 -0.514788,2.036577 -0.528882,2.961328 -0.52348200139,34.395833 l 0.005700001,32.302938 0.608749,1.71979 c 0.78856898,2.22759 1.76770698,3.75085 3.44319998,5.3573 1.514699,1.45228 4.389378,2.95053 6.3877244,3.32899 h 5.17e-4 c 1.926796,0.36457 50.403706,0.38754 52.404556,0.0248 2.29614,-0.41627 5.07702,-1.84308 6.69417,-3.43493 1.72453,-1.69754 2.60037,-3.06318 3.38377,-5.27617 l 0.60875,-1.71979 0.006,-32.302938 c 0.005,-31.568335 -0.007,-32.350586 -0.52969,-34.395833 -1.05399,-4.121313 -1.89722,-5.494122 -7.6233,-12.4116461 l -3.28507,-3.96875 1.26038,-0.148311 c 1.50411,-0.177222 2.24586,-0.928384 2.24586,-2.27428 0,-1.102238 -0.63999,-1.87207607 -1.70532,-2.12080107294783 h -37.27059 -1.94459 V 1.2386839 v 1.8495 1.322916 h 1.94459 10.20506 23.24871 l 0.71055,0.837159 c 4.79337,5.6484791 8.62748,10.6319041 9.41131,12.2318111 2.01238,4.107581 1.88257,1.492752 1.88257,37.863322 v 32.543757 l -0.84542,1.78439 c -0.46492,0.98145 -1.17929,2.22356 -1.5875,2.76004 -1.13612,1.49313 -3.62796,3.19129 -5.5578,3.78736 -1.67604,0.51816 -2.41405,0.53204 -27.4252,0.52504 l -25.70283,-0.007 -1.7270264,-0.58911 c -3.952588,-1.34728 -6.86824,-4.69844 -7.65483,-8.79843 -0.220058,-1.14725 -0.278934,-10.219386 -0.214974,-33.196422 0.09827,-35.302395 -0.05086,-32.538574 1.979724,-36.70577 0.834115,-1.711784 6.7676424,-9.3829671 9.4180304,-12.1760011 l 0.641305,-0.675928 V 3.0884339 1.3288509 2.4982705e-4 H 11.473183 Z M 36.772599,1.2361099 c 29.03074,0 27.9866,-0.05015 27.26087,1.305864 l -0.29197,0.54622 h -26.9689 -10.13633 v -1.85105 c 2.88617,-0.0017 6.24029,-10e-4 10.13633,-10e-4 z m -25.299232,0.172083 v 1.680001 H 9.8037016 l -0.292489,-0.54622 C 9.1683996,1.9014209 8.7544776,1.5746749 11.473367,1.4081929 Z M 68.600629,24.628998 c -0.58302,0.03095 -0.6072,1.312787 -0.6072,8.231022 0,6.177627 0.076,8.046004 0.33073,8.134904 0.95788,0.33412 0.99219,0.05208 0.99219,-8.147306 0,-6.177632 -0.076,-8.046034 -0.33073,-8.134904 -0.14967,-0.05221 -0.27703,-0.08945 -0.38499,-0.08372 z m -0.20619,18.439184 c -0.39498,-0.0077 -0.40101,0.349251 -0.40101,2.974496 0,2.19333 0.092,3.071029 0.33073,3.154329 0.88651,0.30923 1.00971,-0.09734 0.93431,-3.079398 -0.0715,-2.82665 -0.0984,-2.94859 -0.66973,-3.02979 -0.0734,-0.01043 -0.13788,-0.01854 -0.1943,-0.01964 z m -23.79958,49.511187 c -4.90225,-0.0419 -8.28551,0.0307 -8.43566,0.18087 -0.1379,0.13788 -0.17877,0.43907 -0.0904,0.66921 0.14248,0.37132 1.09313,0.4103 8.43566,0.3483 8.07539,-0.0682 8.27546,-0.0825 8.27546,-0.59893 0,-0.5163 -0.19981,-0.53115 -8.18503,-0.59945 z m 14.00586,0.0703 c -3.10411,0 -3.17708,0.0134 -3.26078,0.60358 l -0.0858,0.60358 3.26078,-0.0744 c 3.05944,-0.0699 3.26078,-0.10706 3.26078,-0.60358 0,-0.49976 -0.17639,-0.52917 -3.175,-0.52917 z" /></svg>
