<?xml version="1.0" encoding="UTF-8" standalone="no"?>
<!-- Created with Inkscape (http://www.inkscape.org/) -->

<svg
   width="57.713074mm"
   height="16.536457mm"
   viewBox="0 0 57.713073 16.536457"
   version="1.1"
   id="svg1"
   xml:space="preserve"
   sodipodi:docname="jar_lid.svg"
   inkscape:version="1.4.2 (ebf0e940d0, 2025-05-08)"
   xmlns:inkscape="http://www.inkscape.org/namespaces/inkscape"
   xmlns:sodipodi="http://sodipodi.sourceforge.net/DTD/sodipodi-0.dtd"
   xmlns="http://www.w3.org/2000/svg"
   xmlns:svg="http://www.w3.org/2000/svg"><sodipodi:namedview
     id="namedview1"
     pagecolor="#ffffff"
     bordercolor="#000000"
     borderopacity="0.25"
     inkscape:showpageshadow="2"
     inkscape:pageopacity="0.0"
     inkscape:pagecheckerboard="0"
     inkscape:deskcolor="#d1d1d1"
     inkscape:document-units="mm"
     inkscape:zoom="1.9028799"
     inkscape:cx="120.08115"
     inkscape:cy="28.903558"
     inkscape:window-width="1477"
     inkscape:window-height="776"
     inkscape:window-x="0"
     inkscape:window-y="0"
     inkscape:window-maximized="1"
     inkscape:current-layer="svg1" /><defs
     id="defs1" /><path
     id="path1-5"
     style="fill:#f9f9f9"
     d="M 1.2769337,-6.1677187e-8 0.63821266,0.74259024 c -0.847777,0.98557696 -0.843579,2.26601236 0.01033,3.18740236 0.51836804,0.559327 0.89076104,0.7002156 1.85208404,0.7002156 1.107088,0 1.203544,0.052868 1.203544,0.6614584 0,0.581889 -0.113669,0.6614583 -0.943612,0.6614583 -1.710067,0 -2.73829704,0.872327 -2.75228704,2.3352577 -0.01257,1.314575 1.19546704,2.4272424 2.63549804,2.4272424 0.98638,0 1.088362,0.06007 1.012342,0.595312 -0.07095,0.499584 -0.292382,0.618999 -1.377694,0.743624 C 0.75354066,12.22966 3.6584195e-6,12.968408 3.6584195e-6,14.2875 c 0,1.298765 0.7563410015805,2.057085 2.2277710415805,2.232939 l 0.134359,0.01602 h 3.297473 46.4974193 3.14037 l 0.13591,-0.01602 c 1.50411,-0.177222 2.24586,-0.928384 2.24586,-2.27428 0,-1.354673 -0.96664,-2.207617 -2.50166,-2.207617 -1.10645,0 -1.20251,-0.05292 -1.20251,-0.661459 0,-0.597388 0.10428,-0.661458 1.07849,-0.661458 1.38971,0 2.62568,-1.1208154 2.62568,-2.3812504 0,-1.2604357 -1.23597,-2.3812497 -2.62568,-2.3812497 -0.97421,0 -1.07849,-0.064065 -1.07849,-0.6614583 0,-0.608538 0.0961,-0.6614584 1.20251,-0.6614584 2.27288,0 3.32263,-2.19059 1.86294,-3.88761796 L 56.401726,-6.1677187e-8 H 28.839586 Z M 28.839596,1.4552082 c 29.03074,0 27.98659,-0.05015 27.26086,1.3058635 l -0.29197,0.5462199 H 28.839596 1.8706957 L 1.5782067,2.7610717 C 0.85249066,1.4050577 -0.19113834,1.4552082 28.839596,1.4552082 Z m -23.5479203,3.175 H 28.839596 52.387506 V 5.2916666 5.9531249 H 28.839596 5.2916757 V 5.2916666 Z M 28.839076,7.2760416 c 23.90643,0 26.72871,0.043516 27.10119,0.4159952 0.49904,0.4990128 0.51661,0.7003678 0.0982,1.1187948 -0.46061,0.460608 -53.9376233,0.460608 -54.3982323,0 -0.418436,-0.418427 -0.400833,-0.619782 0.09818,-1.1187948 0.37248,-0.372474 3.194256,-0.4159952 27.1006723,-0.4159952 z m 5.2e-4,3.4395834 c 23.13287,0 23.54791,0.0092 23.54791,0.513664 0,0.282452 -0.0893,0.550342 -0.19843,0.595312 -0.10914,0.04497 -10.70571,0.05112 -23.54792,0.01395 -23.1293053,-0.06695 -23.3494803,-0.07256 -23.3494803,-0.595313 0,-0.523329 0.197773,-0.527616 23.5479203,-0.527616 z m 0,2.645833 c 29.03074,0 27.98659,-0.05015 27.26086,1.305864 l -0.29197,0.54622 H 28.839596 1.8706957 l -0.292489,-0.54622 C 0.85249066,13.311308 -0.19113834,13.361458 28.839596,13.361458 Z" /></svg>
