<?xml version="1.0" encoding="UTF-8" standalone="no"?>
<!-- Created with Inkscape (http://www.inkscape.org/) -->

<svg
   width="34.476444mm"
   height="34.476452mm"
   viewBox="0 0 34.476444 34.476452"
   version="1.1"
   id="svg1"
   xmlns="http://www.w3.org/2000/svg"
   xmlns:svg="http://www.w3.org/2000/svg">
  <defs
     id="defs1" />
  <g
     id="layer1"
     transform="translate(-7.7214499,-33.892652)">
    <path
       id="path1"
       style="fill:#999999;stroke-width:0.264583"
       d="M 24.959674,33.89265 A 17.238211,17.238211 0 0 0 7.72145,51.130874 17.238211,17.238211 0 0 0 24.959674,68.369098 17.238211,17.238211 0 0 0 42.197898,51.130874 17.238211,17.238211 0 0 0 24.959674,33.89265 Z m 0,5.970695 c 0.69635,0 1.256771,0.560935 1.256771,1.257287 v 8.753471 h 8.753988 c 0.696351,0 1.25677,0.560936 1.25677,1.257288 0,0.696352 -0.560419,1.256771 -1.25677,1.256771 h -8.753988 v 8.753987 c 0,0.696352 -0.560421,1.256771 -1.256771,1.256771 -0.69635,0 -1.256771,-0.560419 -1.256771,-1.256771 v -8.753987 h -8.753987 c -0.69635,0 -1.256771,-0.560419 -1.256771,-1.256771 0,-0.696352 0.560421,-1.257288 1.256771,-1.257288 h 8.753987 v -8.753471 c 0,-0.696352 0.560421,-1.257287 1.256771,-1.257287 z" />
  </g>
</svg>
